<?xml version="1.0" encoding="utf-8"?>
<!-- Generator: Adobe Illustrator 18.0.0, SVG Export Plug-In . SVG Version: 6.00 Build 0)  -->
<!DOCTYPE svg PUBLIC "-//W3C//DTD SVG 1.1//EN" "http://www.w3.org/Graphics/SVG/1.1/DTD/svg11.dtd">
<svg version="1.1" id="Слой_2" xmlns="http://www.w3.org/2000/svg" xmlns:xlink="http://www.w3.org/1999/xlink" x="0px" y="0px"
	 viewBox="0 224 1590 906" enable-background="new 0 224 1590 906" xml:space="preserve">
<path fill="#006400"    d="M1581.4,957.9l-66.2-46.2v-89h-2.8v-0.3L1271.9,664
	V483.1h-229.6c-11.4-9.7-22.3-19.6-33.8-30.2c-8.3-7.7-18.5-15.9-28.2-21.6c-8.6-5-42.1-15.1-47.4-22.7c0-1.5-3.6-12.7-3.6-12.7
	c5.7,4.6,35.6,11.9,41.6,7.8c9.8-6.8,2-12.5-3-20.4c9.7-1.1,16.4-1.1,22-11.3c6.1-11.1-0.5-14.4-2.6-25.3c-2.8,3.2-7.2,4.9-11.5,3.8
	c4.1-4.8,4.8-13.8-0.3-17.2c-1.2,14.8-16,0.4-18.4-6c-3-8.1-2.7-18.7-5.3-27c-5-15.9-7.4-26.8-20-36.2
	c-15.2-11.5-35.6-13.9-55.8-11.9c-12.3,1.2-37,7.2-34.2,26.9l3.6,7.7c-11,13.1,1.3,26.9-6.8,40.9c-2.3,3.8-10.7,11-10.9,15.4
	c-0.3,4.9,8.9,5.7,10.2,13.5c-3.7,4.4,0.3,9.7,5.7,13c-0.7,1.2-4.1,3.4-4.5,6.2c-1.1,8,1.7-3.2,6.5,18.5c7.8,1.3,20-5.7,24.9-1.6
	c0,0,21.6,6.8,19.9,24.9c-1.7,17.6-30.3,20.1-36.6,37c-2.1,5.8-2.9,16.3-3.3,28.5H718.5c-4.9-6.9-11-13.2-12.6-21.3
	c-2.1-11,2.3-20.7,6.2-30.1c3.3-7.8,8-13.9,12.9-21.1c3.8-5.7-0.4-16,2-18.3l6.9-5.8c7,0.9,13,3.3,19.9,4.2
	c6.6,0.9,12.6,3.8,18.5,0.4c1.3-6.9-0.9-17.2,2.1-20.9c1.1-1.3-5-4.1-5.3-6c-0.3-2.7,5.8-5.4,6.6-7.7c3-7.9-1.9-5-2.9-10.2
	c4.4-0.7,3-2.8,7.6-4.4c9.3-3.3-8.6-18.8-8.2-34.6c7.2-22-10.3-37.1-13.8-43.3c2.5-1.3,4.8-4.1,6.5-6
	c-18.3-14.7-45.3-19.6-68.2-19.1c-27,0.7-36,16.4-43.6,41.7c-6.9,22.7-1.9,49.7-0.7,73.4c0.8,16.8-13,41.1-17.5,45.4
	c-4.1,4.1-7.7,6.9-12.1,10.5c-8.5,6.6-17.2,11.9-25.2,18.3c-13.8,10.9-26.9,26.4-38.4,40.1c-4.1,4.9-8.5,9.7-13,14.6H319.7v180.9
	h-2.8L78.4,822.6h-4.9v89.2L5.7,959.6l-0.4,21.6h44.5v139.5h68.2V981.2h1353.5v139.5h68.2V981.2h43.6L1581.4,957.9z"/>
</svg>
